<svg xmlns="http://www.w3.org/2000/svg" class="graphdiagram" viewBox="-2184.8991805297883 -1603.3200329685983 3840 2178"><g class="layer relationships"><g class="related-pair"><g class="relationship" transform="translate(-1069.4572143554688,-1026.1157836914062) rotate(26.702953484193404)"><path class="relationship" d="M 107.63641057216334 4 L 911.9070388628201 4 L 911.9070388628201 16 L 943.9070388628201 0 L 911.9070388628201 -16 L 911.9070388628201 -4 L 107.63641057216334 -4 Z" fill="rgb(0, 0, 0)" stroke="rgb(51, 51, 51)" stroke-width="0px"/><text class="type" text-anchor="middle" baseline-shift="30%" alignment-baseline="alphabetic" x="509.77172471749174" y="0" font-size="50px" font-family="&quot;Gill Sans&quot;, &quot;Gill Sans MT&quot;, Calibri, sans-serif">:ACTED_IN</text></g></g><g class="related-pair"><g class="relationship" transform="translate(-1032,-439) rotate(-7.498121214630838)"><path class="relationship" d="M 126.03473380834461 4 L 770.7993267215084 4 L 770.7993267215084 16 L 802.7993267215084 0 L 770.7993267215084 -16 L 770.7993267215084 -4 L 126.03473380834461 -4 Z" fill="rgb(0, 0, 0)" stroke="rgb(51, 51, 51)" stroke-width="0px"/><text class="type" text-anchor="middle" baseline-shift="30%" alignment-baseline="alphabetic" x="448.41703026492644" y="0" font-size="50px" font-family="&quot;Gill Sans&quot;, &quot;Gill Sans MT&quot;, Calibri, sans-serif">:DIRECTED</text></g></g><g class="related-pair"><g class="relationship" transform="translate(-1069.4572143554688,44.8119010925293) rotate(-32.81985532015149)"><path class="relationship" d="M 109.86817524364893 4 L 977.7278136657468 4 L 977.7278136657468 16 L 1009.7278136657468 0 L 977.7278136657468 -16 L 977.7278136657468 -4 L 109.86817524364893 -4 Z" fill="rgb(0, 0, 0)" stroke="rgb(51, 51, 51)" stroke-width="0px"/><text class="type" text-anchor="middle" baseline-shift="30%" alignment-baseline="alphabetic" x="543.7979944546979" y="0" font-size="50px" font-family="&quot;Gill Sans&quot;, &quot;Gill Sans MT&quot;, Calibri, sans-serif">:WROTE</text></g></g><g class="related-pair"><g class="relationship" transform="translate(-136.5598907470703,-556.8570556640625) rotate(-21.920333549907284)"><path class="relationship" d="M 100.36360145297148 4 L 549.8513836618391 4 L 549.8513836618391 16 L 581.8513836618391 0 L 549.8513836618391 -16 L 549.8513836618391 -4 L 100.36360145297148 -4 Z" fill="rgb(0, 0, 0)" stroke="rgb(51, 51, 51)" stroke-width="0px"/><text class="type" text-anchor="middle" baseline-shift="30%" alignment-baseline="alphabetic" x="325.1074925574053" y="0" font-size="50px" font-family="&quot;Gill Sans&quot;, &quot;Gill Sans MT&quot;, Calibri, sans-serif">:HAS_BEEN_GIVEN</text></g></g><g class="related-pair"><g class="relationship" transform="translate(-136.5598907470703,-556.8570556640625) rotate(20.815499416906587)"><path class="relationship" d="M 100.36360145297148 4 L 476.84717727391353 4 L 476.84717727391353 16 L 508.84717727391353 0 L 476.84717727391353 -16 L 476.84717727391353 -4 L 100.36360145297148 -4 Z" fill="rgb(0, 0, 0)" stroke="rgb(51, 51, 51)" stroke-width="0px"/><text class="type" text-anchor="middle" baseline-shift="30%" alignment-baseline="alphabetic" x="288.6053893634425" y="0" font-size="50px" font-family="&quot;Gill Sans&quot;, &quot;Gill Sans MT&quot;, Calibri, sans-serif">:RUNS_FOR</text></g></g><g class="related-pair"><g class="relationship" transform="translate(-136.5598907470703,-556.8570556640625) rotate(90)"><path class="relationship" d="M 100.36360145297148 4 L 496.7550901742409 4 L 496.7550901742409 16 L 528.7550901742409 0 L 496.7550901742409 -16 L 496.7550901742409 -4 L 100.36360145297148 -4 Z" fill="rgb(0, 0, 0)" stroke="rgb(51, 51, 51)" stroke-width="0px"/><text class="type" text-anchor="middle" baseline-shift="30%" alignment-baseline="alphabetic" x="298.55934581360617" y="0" font-size="50px" font-family="&quot;Gill Sans&quot;, &quot;Gill Sans MT&quot;, Calibri, sans-serif">:BELONGS_TO</text></g></g></g><g class="layer nodes"><circle class="node node-id-0" r="92.63641057216334" fill="rgb(255, 255, 255)" stroke="rgb(0, 0, 0)" stroke-width="8px" cx="-1069.4572143554688" cy="-1026.1157836914062"/><g class="caption"><text class="caption node" text-anchor="middle" alignment-baseline="central" x="-1069.4572143554688" y="-1026.1157836914062" fill="rgb(51, 51, 51)" font-size="50px" font-family="&quot;Gill Sans&quot;, &quot;Gill Sans MT&quot;, Calibri, sans-serif">Actors</text></g><circle class="node node-id-1" r="111.03473380834461" fill="rgb(255, 255, 255)" stroke="rgb(0, 0, 0)" stroke-width="8px" cx="-1032" cy="-439"/><g class="caption"><text class="caption node" text-anchor="middle" alignment-baseline="central" x="-1032" y="-439" fill="rgb(51, 51, 51)" font-size="50px" font-family="&quot;Gill Sans&quot;, &quot;Gill Sans MT&quot;, Calibri, sans-serif">Director</text></g><circle class="node node-id-2" r="94.86817524364893" fill="rgb(255, 255, 255)" stroke="rgb(0, 0, 0)" stroke-width="8px" cx="-1069.4572143554688" cy="44.8119010925293"/><g class="caption"><text class="caption node" text-anchor="middle" alignment-baseline="central" x="-1069.4572143554688" y="44.8119010925293" fill="rgb(51, 51, 51)" font-size="50px" font-family="&quot;Gill Sans&quot;, &quot;Gill Sans MT&quot;, Calibri, sans-serif">Writer</text></g><circle class="node node-id-3" r="85.36360145297148" fill="rgb(255, 255, 255)" stroke="rgb(0, 0, 0)" stroke-width="8px" cx="-136.5598907470703" cy="-556.8570556640625"/><g class="caption"><text class="caption node" text-anchor="middle" alignment-baseline="central" x="-136.5598907470703" y="-556.8570556640625" fill="rgb(51, 51, 51)" font-size="50px" font-family="&quot;Gill Sans&quot;, &quot;Gill Sans MT&quot;, Calibri, sans-serif">Movie</text></g><circle class="node node-id-4" r="86.54129983032438" fill="rgb(255, 255, 255)" stroke="rgb(0, 0, 0)" stroke-width="8px" cx="497.4261169433594" cy="-811.9791870117188"/><g class="caption"><text class="caption node" text-anchor="middle" alignment-baseline="central" x="497.4261169433594" y="-811.9791870117188" fill="rgb(51, 51, 51)" font-size="50px" font-family="&quot;Gill Sans&quot;, &quot;Gill Sans MT&quot;, Calibri, sans-serif">Rating</text></g><circle class="node node-id-5" r="154.4088886179093" fill="rgb(255, 255, 255)" stroke="rgb(0, 0, 0)" stroke-width="8px" cx="497.4261169433594" cy="-315.83209228515625"/><g class="caption"><text class="caption node" text-anchor="middle" alignment-baseline="central" x="497.4261169433594" y="-315.83209228515625" fill="rgb(51, 51, 51)" font-size="50px" font-family="&quot;Gill Sans&quot;, &quot;Gill Sans MT&quot;, Calibri, sans-serif">RunningTime</text></g><circle class="node node-id-6" r="88.0407586721947" fill="rgb(255, 255, 255)" stroke="rgb(0, 0, 0)" stroke-width="8px" cx="-136.5598907470703" cy="74.93879318237305"/><g class="caption"><text class="caption node" text-anchor="middle" alignment-baseline="central" x="-136.5598907470703" y="74.93879318237305" fill="rgb(51, 51, 51)" font-size="50px" font-family="&quot;Gill Sans&quot;, &quot;Gill Sans MT&quot;, Calibri, sans-serif">Genre</text></g></g><g class="layer properties"><g class="speech-bubble node-speech-bubble" transform="translate(-1134.9610484558266,-1091.619617791764) "><path class="speech-bubble-outline" transform="scale(-1,-1) " d="M 0 0 L 30 20 L 277.8271484375 20 A 10 10 0 0 1 287.8271484375 30 L 287.8271484375 180 A 10 10 0 0 1 277.8271484375 190 L 30 190 A 10 10 0 0 1 20 180 L 20 30 Z" fill="rgb(255, 255, 255)" stroke="rgb(0, 0, 0)" stroke-width="3px"/><text class="speech-bubble-content property-key" x="-109.248046875" y="-155" alignment-baseline="central" text-anchor="end" font-size="50px" font-family="&quot;Gill Sans&quot;, &quot;Gill Sans MT&quot;, Calibri, sans-serif" xml:space="preserve">actorid: </text><text class="speech-bubble-content property-key" x="-109.248046875" y="-105" alignment-baseline="central" text-anchor="end" font-size="50px" font-family="&quot;Gill Sans&quot;, &quot;Gill Sans MT&quot;, Calibri, sans-serif" xml:space="preserve">name: </text><text class="speech-bubble-content property-key" x="-109.248046875" y="-55" alignment-baseline="central" text-anchor="end" font-size="50px" font-family="&quot;Gill Sans&quot;, &quot;Gill Sans MT&quot;, Calibri, sans-serif" xml:space="preserve">sex: </text><text class="speech-bubble-content property-value" x="-109.248046875" y="-155" alignment-baseline="central" font-size="50px" font-family="&quot;Gill Sans&quot;, &quot;Gill Sans MT&quot;, Calibri, sans-serif">"..",</text><text class="speech-bubble-content property-value" x="-109.248046875" y="-105" alignment-baseline="central" font-size="50px" font-family="&quot;Gill Sans&quot;, &quot;Gill Sans MT&quot;, Calibri, sans-serif">"...",</text><text class="speech-bubble-content property-value" x="-109.248046875" y="-55" alignment-baseline="central" font-size="50px" font-family="&quot;Gill Sans&quot;, &quot;Gill Sans MT&quot;, Calibri, sans-serif">"..."</text></g><g class="speech-bubble node-speech-bubble" transform="translate(-1143.0347338083445,-439) "><path class="speech-bubble-outline" transform="scale(-1,1) " d="M 0 0 L 20 -10 L 20 -125 A 10 10 0 0 1 30 -135 L 335.6884765625 -135 A 10 10 0 0 1 345.6884765625 -125 L 345.6884765625 125 A 10 10 0 0 1 335.6884765625 135 L 30 135 A 10 10 0 0 1 20 125 L 20 10 Z" fill="rgb(255, 255, 255)" stroke="rgb(0, 0, 0)" stroke-width="3px"/><text class="speech-bubble-content property-key" x="-109.248046875" y="-100" alignment-baseline="central" text-anchor="end" font-size="50px" font-family="&quot;Gill Sans&quot;, &quot;Gill Sans MT&quot;, Calibri, sans-serif" xml:space="preserve">directorid: </text><text class="speech-bubble-content property-key" x="-109.248046875" y="-50" alignment-baseline="central" text-anchor="end" font-size="50px" font-family="&quot;Gill Sans&quot;, &quot;Gill Sans MT&quot;, Calibri, sans-serif" xml:space="preserve">name: </text><text class="speech-bubble-content property-key" x="-109.248046875" y="0" alignment-baseline="central" text-anchor="end" font-size="50px" font-family="&quot;Gill Sans&quot;, &quot;Gill Sans MT&quot;, Calibri, sans-serif" xml:space="preserve">rate: </text><text class="speech-bubble-content property-key" x="-109.248046875" y="50" alignment-baseline="central" text-anchor="end" font-size="50px" font-family="&quot;Gill Sans&quot;, &quot;Gill Sans MT&quot;, Calibri, sans-serif" xml:space="preserve">gross: </text><text class="speech-bubble-content property-key" x="-109.248046875" y="100" alignment-baseline="central" text-anchor="end" font-size="50px" font-family="&quot;Gill Sans&quot;, &quot;Gill Sans MT&quot;, Calibri, sans-serif" xml:space="preserve">num: </text><text class="speech-bubble-content property-value" x="-109.248046875" y="-100" alignment-baseline="central" font-size="50px" font-family="&quot;Gill Sans&quot;, &quot;Gill Sans MT&quot;, Calibri, sans-serif">"...",</text><text class="speech-bubble-content property-value" x="-109.248046875" y="-50" alignment-baseline="central" font-size="50px" font-family="&quot;Gill Sans&quot;, &quot;Gill Sans MT&quot;, Calibri, sans-serif">"...",</text><text class="speech-bubble-content property-value" x="-109.248046875" y="0" alignment-baseline="central" font-size="50px" font-family="&quot;Gill Sans&quot;, &quot;Gill Sans MT&quot;, Calibri, sans-serif">"...",</text><text class="speech-bubble-content property-value" x="-109.248046875" y="50" alignment-baseline="central" font-size="50px" font-family="&quot;Gill Sans&quot;, &quot;Gill Sans MT&quot;, Calibri, sans-serif">"...",</text><text class="speech-bubble-content property-value" x="-109.248046875" y="100" alignment-baseline="central" font-size="50px" font-family="&quot;Gill Sans&quot;, &quot;Gill Sans MT&quot;, Calibri, sans-serif">"..."</text></g><g class="speech-bubble node-speech-bubble" transform="translate(-1136.5391443890467,111.89383112610722) "><path class="speech-bubble-outline" transform="scale(-1,1) " d="M 0 0 L 30 20 L 277.8759765625 20 A 10 10 0 0 1 287.8759765625 30 L 287.8759765625 130 A 10 10 0 0 1 277.8759765625 140 L 30 140 A 10 10 0 0 1 20 130 L 20 30 Z" fill="rgb(255, 255, 255)" stroke="rgb(0, 0, 0)" stroke-width="3px"/><text class="speech-bubble-content property-key" x="-109.248046875" y="55" alignment-baseline="central" text-anchor="end" font-size="50px" font-family="&quot;Gill Sans&quot;, &quot;Gill Sans MT&quot;, Calibri, sans-serif" xml:space="preserve">writeid: </text><text class="speech-bubble-content property-key" x="-109.248046875" y="105" alignment-baseline="central" text-anchor="end" font-size="50px" font-family="&quot;Gill Sans&quot;, &quot;Gill Sans MT&quot;, Calibri, sans-serif" xml:space="preserve">name: </text><text class="speech-bubble-content property-value" x="-109.248046875" y="55" alignment-baseline="central" font-size="50px" font-family="&quot;Gill Sans&quot;, &quot;Gill Sans MT&quot;, Calibri, sans-serif">"...",</text><text class="speech-bubble-content property-value" x="-109.248046875" y="105" alignment-baseline="central" font-size="50px" font-family="&quot;Gill Sans&quot;, &quot;Gill Sans MT&quot;, Calibri, sans-serif">".."</text></g><g class="speech-bubble node-speech-bubble" transform="translate(-136.5598907470703,-642.220657117034) "><path class="speech-bubble-outline" transform="scale(1,-1) " d="M 0 0 L -10 20 L -131.50634765625 20 A 10 10 0 0 0 -141.50634765625 30 L -141.50634765625 180 A 10 10 0 0 0 -131.50634765625 190 L 131.50634765625 190 A 10 10 0 0 0 141.50634765625 180 L 141.50634765625 30 A 10 10 0 0 0 131.50634765625 20 L 10 20 Z" fill="rgb(255, 255, 255)" stroke="rgb(0, 0, 0)" stroke-width="3px"/><text class="speech-bubble-content property-key" x="52.25830078125" y="-155" alignment-baseline="central" text-anchor="end" font-size="50px" font-family="&quot;Gill Sans&quot;, &quot;Gill Sans MT&quot;, Calibri, sans-serif" xml:space="preserve">movieid: </text><text class="speech-bubble-content property-key" x="52.25830078125" y="-105" alignment-baseline="central" text-anchor="end" font-size="50px" font-family="&quot;Gill Sans&quot;, &quot;Gill Sans MT&quot;, Calibri, sans-serif" xml:space="preserve">title: </text><text class="speech-bubble-content property-key" x="52.25830078125" y="-55" alignment-baseline="central" text-anchor="end" font-size="50px" font-family="&quot;Gill Sans&quot;, &quot;Gill Sans MT&quot;, Calibri, sans-serif" xml:space="preserve">year: </text><text class="speech-bubble-content property-value" x="52.25830078125" y="-155" alignment-baseline="central" font-size="50px" font-family="&quot;Gill Sans&quot;, &quot;Gill Sans MT&quot;, Calibri, sans-serif">"...",</text><text class="speech-bubble-content property-value" x="52.25830078125" y="-105" alignment-baseline="central" font-size="50px" font-family="&quot;Gill Sans&quot;, &quot;Gill Sans MT&quot;, Calibri, sans-serif">"...",</text><text class="speech-bubble-content property-value" x="52.25830078125" y="-55" alignment-baseline="central" font-size="50px" font-family="&quot;Gill Sans&quot;, &quot;Gill Sans MT&quot;, Calibri, sans-serif">"..."</text></g><g class="speech-bubble relationship-speech-bubble" transform="translate(-614.0535486004183,-797.0421873554067) "><path class="speech-bubble-outline" transform="scale(-1,1) " d="M 0 0 L 30 20 L 395.9423828125 20 A 10 10 0 0 1 405.9423828125 30 L 405.9423828125 130 A 10 10 0 0 1 395.9423828125 140 L 30 140 A 10 10 0 0 1 20 130 L 20 30 Z" fill="rgb(255, 255, 255)" stroke="rgb(0, 0, 0)" stroke-width="3px"/><text class="speech-bubble-content property-key" x="-109.248046875" y="55" alignment-baseline="central" text-anchor="end" font-size="50px" font-family="&quot;Gill Sans&quot;, &quot;Gill Sans MT&quot;, Calibri, sans-serif" xml:space="preserve">as_character: </text><text class="speech-bubble-content property-key" x="-109.248046875" y="105" alignment-baseline="central" text-anchor="end" font-size="50px" font-family="&quot;Gill Sans&quot;, &quot;Gill Sans MT&quot;, Calibri, sans-serif" xml:space="preserve">leading: </text><text class="speech-bubble-content property-value" x="-109.248046875" y="55" alignment-baseline="central" font-size="50px" font-family="&quot;Gill Sans&quot;, &quot;Gill Sans MT&quot;, Calibri, sans-serif">"...",</text><text class="speech-bubble-content property-value" x="-109.248046875" y="105" alignment-baseline="central" font-size="50px" font-family="&quot;Gill Sans&quot;, &quot;Gill Sans MT&quot;, Calibri, sans-serif">"..."</text></g><g class="speech-bubble relationship-speech-bubble" transform="translate(-612.4608925199841,-249.92632276347103) "><path class="speech-bubble-outline" transform="scale(1,1) " d="M 0 0 L 30 20 L 286.1279296875 20 A 10 10 0 0 1 296.1279296875 30 L 296.1279296875 80 A 10 10 0 0 1 286.1279296875 90 L 30 90 A 10 10 0 0 1 20 80 L 20 30 Z" fill="rgb(255, 255, 255)" stroke="rgb(0, 0, 0)" stroke-width="3px"/><text class="speech-bubble-content property-key" x="217.841796875" y="55" alignment-baseline="central" text-anchor="end" font-size="50px" font-family="&quot;Gill Sans&quot;, &quot;Gill Sans MT&quot;, Calibri, sans-serif" xml:space="preserve">addition: </text><text class="speech-bubble-content property-value" x="217.841796875" y="55" alignment-baseline="central" font-size="50px" font-family="&quot;Gill Sans&quot;, &quot;Gill Sans MT&quot;, Calibri, sans-serif">"..."</text></g><g class="speech-bubble node-speech-bubble" transform="translate(583.9674167736838,-811.9791870117188) "><path class="speech-bubble-outline" transform="scale(1,1) " d="M 0 0 L 20 -10 L 20 -75 A 10 10 0 0 1 30 -85 L 367.40234375 -85 A 10 10 0 0 1 377.40234375 -75 L 377.40234375 75 A 10 10 0 0 1 367.40234375 85 L 30 85 A 10 10 0 0 1 20 75 L 20 10 Z" fill="rgb(255, 255, 255)" stroke="rgb(0, 0, 0)" stroke-width="3px"/><text class="speech-bubble-content property-key" x="288.154296875" y="-50" alignment-baseline="central" text-anchor="end" font-size="50px" font-family="&quot;Gill Sans&quot;, &quot;Gill Sans MT&quot;, Calibri, sans-serif" xml:space="preserve">rank: </text><text class="speech-bubble-content property-key" x="288.154296875" y="0" alignment-baseline="central" text-anchor="end" font-size="50px" font-family="&quot;Gill Sans&quot;, &quot;Gill Sans MT&quot;, Calibri, sans-serif" xml:space="preserve">votes: </text><text class="speech-bubble-content property-key" x="288.154296875" y="50" alignment-baseline="central" text-anchor="end" font-size="50px" font-family="&quot;Gill Sans&quot;, &quot;Gill Sans MT&quot;, Calibri, sans-serif" xml:space="preserve">distribution: </text><text class="speech-bubble-content property-value" x="288.154296875" y="-50" alignment-baseline="central" font-size="50px" font-family="&quot;Gill Sans&quot;, &quot;Gill Sans MT&quot;, Calibri, sans-serif">"...",</text><text class="speech-bubble-content property-value" x="288.154296875" y="0" alignment-baseline="central" font-size="50px" font-family="&quot;Gill Sans&quot;, &quot;Gill Sans MT&quot;, Calibri, sans-serif">"...",</text><text class="speech-bubble-content property-value" x="288.154296875" y="50" alignment-baseline="central" font-size="50px" font-family="&quot;Gill Sans&quot;, &quot;Gill Sans MT&quot;, Calibri, sans-serif">"..."</text></g><g class="speech-bubble node-speech-bubble" transform="translate(651.8350055612686,-315.83209228515625) "><path class="speech-bubble-outline" transform="scale(1,1) " d="M 0 0 L 20 -10 L 20 -75 A 10 10 0 0 1 30 -85 L 297.08984375 -85 A 10 10 0 0 1 307.08984375 -75 L 307.08984375 75 A 10 10 0 0 1 297.08984375 85 L 30 85 A 10 10 0 0 1 20 75 L 20 10 Z" fill="rgb(255, 255, 255)" stroke="rgb(0, 0, 0)" stroke-width="3px"/><text class="speech-bubble-content property-key" x="217.841796875" y="-50" alignment-baseline="central" text-anchor="end" font-size="50px" font-family="&quot;Gill Sans&quot;, &quot;Gill Sans MT&quot;, Calibri, sans-serif" xml:space="preserve">time: </text><text class="speech-bubble-content property-key" x="217.841796875" y="0" alignment-baseline="central" text-anchor="end" font-size="50px" font-family="&quot;Gill Sans&quot;, &quot;Gill Sans MT&quot;, Calibri, sans-serif" xml:space="preserve">addition: </text><text class="speech-bubble-content property-key" x="217.841796875" y="50" alignment-baseline="central" text-anchor="end" font-size="50px" font-family="&quot;Gill Sans&quot;, &quot;Gill Sans MT&quot;, Calibri, sans-serif" xml:space="preserve">time1: </text><text class="speech-bubble-content property-value" x="217.841796875" y="-50" alignment-baseline="central" font-size="50px" font-family="&quot;Gill Sans&quot;, &quot;Gill Sans MT&quot;, Calibri, sans-serif">"...",</text><text class="speech-bubble-content property-value" x="217.841796875" y="0" alignment-baseline="central" font-size="50px" font-family="&quot;Gill Sans&quot;, &quot;Gill Sans MT&quot;, Calibri, sans-serif">"...",</text><text class="speech-bubble-content property-value" x="217.841796875" y="50" alignment-baseline="central" font-size="50px" font-family="&quot;Gill Sans&quot;, &quot;Gill Sans MT&quot;, Calibri, sans-serif">"..."</text></g><g class="speech-bubble node-speech-bubble" transform="translate(-136.5598907470703,162.97955185456775) "><path class="speech-bubble-outline" transform="scale(1,1) " d="M 0 0 L -10 20 L -100.98876953125 20 A 10 10 0 0 0 -110.98876953125 30 L -110.98876953125 80 A 10 10 0 0 0 -100.98876953125 90 L 100.98876953125 90 A 10 10 0 0 0 110.98876953125 80 L 110.98876953125 30 A 10 10 0 0 0 100.98876953125 20 L 10 20 Z" fill="rgb(255, 255, 255)" stroke="rgb(0, 0, 0)" stroke-width="3px"/><text class="speech-bubble-content property-key" x="32.70263671875" y="55" alignment-baseline="central" text-anchor="end" font-size="50px" font-family="&quot;Gill Sans&quot;, &quot;Gill Sans MT&quot;, Calibri, sans-serif" xml:space="preserve">name: </text><text class="speech-bubble-content property-value" x="32.70263671875" y="55" alignment-baseline="central" font-size="50px" font-family="&quot;Gill Sans&quot;, &quot;Gill Sans MT&quot;, Calibri, sans-serif">"..."</text></g></g><g class="layer overlay"><circle class="node overlay" r="96.63641057216334" stroke="none" fill="rgba(255, 255, 255, 0)" cx="-1069.4572143554688" cy="-1026.1157836914062"/><circle class="node ring" r="101.63641057216334" fill="none" stroke="rgba(255, 255, 255, 0)" stroke-width="10px" cx="-1069.4572143554688" cy="-1026.1157836914062"/><circle class="node overlay" r="115.03473380834461" stroke="none" fill="rgba(255, 255, 255, 0)" cx="-1032" cy="-439"/><circle class="node ring" r="120.03473380834461" fill="none" stroke="rgba(255, 255, 255, 0)" stroke-width="10px" cx="-1032" cy="-439"/><circle class="node overlay" r="98.86817524364893" stroke="none" fill="rgba(255, 255, 255, 0)" cx="-1069.4572143554688" cy="44.8119010925293"/><circle class="node ring" r="103.86817524364893" fill="none" stroke="rgba(255, 255, 255, 0)" stroke-width="10px" cx="-1069.4572143554688" cy="44.8119010925293"/><circle class="node overlay" r="89.36360145297148" stroke="none" fill="rgba(255, 255, 255, 0)" cx="-136.5598907470703" cy="-556.8570556640625"/><circle class="node ring" r="94.36360145297148" fill="none" stroke="rgba(255, 255, 255, 0)" stroke-width="10px" cx="-136.5598907470703" cy="-556.8570556640625"/><path class="relationship overlay" fill="rgba(255, 255, 255, 0)" stroke="rgba(255, 255, 255, 0)" stroke-width="10px" transform="translate(-1069.4572143554688,-1026.1157836914062) rotate(26.702953484193404)" d="M 107.63641057216334 4 L 911.9070388628201 4 L 911.9070388628201 16 L 943.9070388628201 0 L 911.9070388628201 -16 L 911.9070388628201 -4 L 107.63641057216334 -4 Z"/><path class="relationship overlay" fill="rgba(255, 255, 255, 0)" stroke="rgba(255, 255, 255, 0)" stroke-width="10px" transform="translate(-1032,-439) rotate(-7.498121214630838)" d="M 126.03473380834461 4 L 770.7993267215084 4 L 770.7993267215084 16 L 802.7993267215084 0 L 770.7993267215084 -16 L 770.7993267215084 -4 L 126.03473380834461 -4 Z"/><path class="relationship overlay" fill="rgba(255, 255, 255, 0)" stroke="rgba(255, 255, 255, 0)" stroke-width="10px" transform="translate(-1069.4572143554688,44.8119010925293) rotate(-32.81985532015149)" d="M 109.86817524364893 4 L 977.7278136657468 4 L 977.7278136657468 16 L 1009.7278136657468 0 L 977.7278136657468 -16 L 977.7278136657468 -4 L 109.86817524364893 -4 Z"/><circle class="node overlay" r="90.54129983032438" stroke="none" fill="rgba(255, 255, 255, 0)" cx="497.4261169433594" cy="-811.9791870117188"/><circle class="node ring" r="95.54129983032438" fill="none" stroke="rgba(255, 255, 255, 0)" stroke-width="10px" cx="497.4261169433594" cy="-811.9791870117188"/><path class="relationship overlay" fill="rgba(255, 255, 255, 0)" stroke="rgba(255, 255, 255, 0)" stroke-width="10px" transform="translate(-136.5598907470703,-556.8570556640625) rotate(-21.920333549907284)" d="M 100.36360145297148 4 L 549.8513836618391 4 L 549.8513836618391 16 L 581.8513836618391 0 L 549.8513836618391 -16 L 549.8513836618391 -4 L 100.36360145297148 -4 Z"/><circle class="node overlay" r="158.4088886179093" stroke="none" fill="rgba(255, 255, 255, 0)" cx="497.4261169433594" cy="-315.83209228515625"/><circle class="node ring" r="163.4088886179093" fill="none" stroke="rgba(255, 255, 255, 0)" stroke-width="10px" cx="497.4261169433594" cy="-315.83209228515625"/><path class="relationship overlay" fill="rgba(255, 255, 255, 0)" stroke="rgba(255, 255, 255, 0)" stroke-width="10px" transform="translate(-136.5598907470703,-556.8570556640625) rotate(20.815499416906587)" d="M 100.36360145297148 4 L 476.84717727391353 4 L 476.84717727391353 16 L 508.84717727391353 0 L 476.84717727391353 -16 L 476.84717727391353 -4 L 100.36360145297148 -4 Z"/><circle class="node overlay" r="92.0407586721947" stroke="none" fill="rgba(255, 255, 255, 0)" cx="-136.5598907470703" cy="74.93879318237305"/><circle class="node ring" r="97.0407586721947" fill="none" stroke="rgba(255, 255, 255, 0)" stroke-width="10px" cx="-136.5598907470703" cy="74.93879318237305"/><path class="relationship overlay" fill="rgba(255, 255, 255, 0)" stroke="rgba(255, 255, 255, 0)" stroke-width="10px" transform="translate(-136.5598907470703,-556.8570556640625) rotate(90)" d="M 100.36360145297148 4 L 496.7550901742409 4 L 496.7550901742409 16 L 528.7550901742409 0 L 496.7550901742409 -16 L 496.7550901742409 -4 L 100.36360145297148 -4 Z"/></g></svg>