<svg xmlns="http://www.w3.org/2000/svg" class="graphdiagram" viewBox="-1535.7554433100552 -1004.2674557647639 3082.1713845588365 1449.7843914998434"><g class="layer relationships"><g class="related-pair"><g class="relationship" transform="translate(-1148.3130493164062,-213.92787170410156) rotate(0)"><path class="relationship" d="M 109.86817524364893 4 L 1000.1932773521889 4 L 1000.1932773521889 16 L 1032.193277352189 0 L 1000.1932773521889 -16 L 1000.1932773521889 -4 L 109.86817524364893 -4 Z" fill="rgb(0, 0, 0)" stroke="rgb(51, 51, 51)" stroke-width="0px"/><text class="type" text-anchor="middle" baseline-shift="30%" alignment-baseline="alphabetic" x="555.0307262979189" y="0" font-size="50px" font-family="&quot;Gill Sans&quot;, &quot;Gill Sans MT&quot;, Calibri, sans-serif">:WROTE</text></g></g><g class="related-pair"><g class="relationship" transform="translate(-1039.3265063762665,180.8975372314453) rotate(-21.093299809558044)"><path class="relationship" d="M 126.03473380834461 4 L 964.7158560176136 4 L 964.7158560176136 16 L 996.7158560176136 0 L 964.7158560176136 -16 L 964.7158560176136 -4 L 126.03473380834461 -4 Z" fill="rgb(0, 0, 0)" stroke="rgb(51, 51, 51)" stroke-width="0px"/><text class="type" text-anchor="middle" baseline-shift="30%" alignment-baseline="alphabetic" x="545.3752949129791" y="0" font-size="50px" font-family="&quot;Gill Sans&quot;, &quot;Gill Sans MT&quot;, Calibri, sans-serif">:DIRECTED</text></g></g><g class="related-pair"><g class="relationship" transform="translate(-1084.8242797851562,-771.6203002929688) rotate(27.549347085580294)"><path class="relationship" d="M 98.67111886894182 4 L 1073.4255456087535 4 L 1073.4255456087535 16 L 1105.4255456087535 0 L 1073.4255456087535 -16 L 1073.4255456087535 -4 L 98.67111886894182 -4 Z" fill="rgb(0, 0, 0)" stroke="rgb(51, 51, 51)" stroke-width="0px"/><text class="type" text-anchor="middle" baseline-shift="30%" alignment-baseline="alphabetic" x="586.0483322388477" y="0" font-size="50px" font-family="&quot;Gill Sans&quot;, &quot;Gill Sans MT&quot;, Calibri, sans-serif">:ACTED_IN</text></g></g><g class="related-pair"><g class="relationship" transform="translate(-15.756170511245728,-213.92787170410156) rotate(-19.185707802144574)"><path class="relationship" d="M 100.36360145297148 4 L 892.4722433823306 4 L 892.4722433823306 16 L 924.4722433823306 0 L 892.4722433823306 -16 L 892.4722433823306 -4 L 100.36360145297148 -4 Z" fill="rgb(0, 0, 0)" stroke="rgb(51, 51, 51)" stroke-width="0px"/><text class="type" text-anchor="middle" baseline-shift="30%" alignment-baseline="alphabetic" x="496.417922417651" y="0" font-size="50px" font-family="&quot;Gill Sans&quot;, &quot;Gill Sans MT&quot;, Calibri, sans-serif">RUNS_FOR</text></g></g><g class="related-pair"><g class="relationship" transform="translate(-15.756170511245728,-213.92787170410156) rotate(1.5272382374128748)"><path class="relationship" d="M 100.36360145297148 4 L 980.1843623194749 4 L 980.1843623194749 16 L 1012.1843623194749 0 L 980.1843623194749 -16 L 980.1843623194749 -4 L 100.36360145297148 -4 Z" fill="rgb(0, 0, 0)" stroke="rgb(51, 51, 51)" stroke-width="0px"/><text class="type" text-anchor="middle" baseline-shift="30%" alignment-baseline="alphabetic" x="540.2739818862232" y="0" font-size="50px" font-family="&quot;Gill Sans&quot;, &quot;Gill Sans MT&quot;, Calibri, sans-serif">IS_GIVEN</text></g></g><g class="related-pair"><g class="relationship" transform="translate(-15.756170511245728,-213.92787170410156) rotate(18.662339702595084)"><path class="relationship" d="M 100.36360145297148 4 L 995.6579713404824 4 L 995.6579713404824 16 L 1027.6579713404824 0 L 995.6579713404824 -16 L 995.6579713404824 -4 L 100.36360145297148 -4 Z" fill="rgb(0, 0, 0)" stroke="rgb(51, 51, 51)" stroke-width="0px"/><text class="type" text-anchor="middle" baseline-shift="30%" alignment-baseline="alphabetic" x="548.010786396727" y="0" font-size="50px" font-family="&quot;Gill Sans&quot;, &quot;Gill Sans MT&quot;, Calibri, sans-serif">:BELONGS_TO</text></g></g><g class="related-pair"><g class="relationship" transform="translate(-1084.8242797851562,-771.6203002929688) rotate(0)"><path class="relationship" d="M 98.67111886894182 4 L 549.694426259378 4 L 549.694426259378 16 L 581.694426259378 0 L 549.694426259378 -16 L 549.694426259378 -4 L 98.67111886894182 -4 Z" fill="rgb(0, 0, 0)" stroke="rgb(51, 51, 51)" stroke-width="0px"/></g></g><g class="related-pair"><g class="relationship" transform="translate(-15.756170511245728,-213.92787170410156) rotate(-62.36328736285207)"><path class="relationship" d="M 100.36360145297148 4 L 512.5642486087505 4 L 512.5642486087505 16 L 544.5642486087505 0 L 512.5642486087505 -16 L 512.5642486087505 -4 L 100.36360145297148 -4 Z" fill="rgb(0, 0, 0)" stroke="rgb(51, 51, 51)" stroke-width="0px"/><text class="type" text-anchor="middle" baseline-shift="30%" alignment-baseline="alphabetic" x="306.463925030861" y="0" font-size="50px" font-family="&quot;Gill Sans&quot;, &quot;Gill Sans MT&quot;, Calibri, sans-serif">:RELEASED</text></g></g></g><g class="layer nodes"><circle class="node node-id-0" r="85.36360145297148" fill="rgb(255, 255, 255)" stroke="rgb(0, 0, 0)" stroke-width="8px" cx="-15.756170511245728" cy="-213.92787170410156"/><circle class="node node-id-1" r="83.67111886894182" fill="rgb(255, 255, 255)" stroke="rgb(0, 0, 0)" stroke-width="8px" cx="-1084.8242797851562" cy="-771.6203002929688"/><circle class="node node-id-2" r="111.03473380834461" fill="rgb(255, 255, 255)" stroke="rgb(0, 0, 0)" stroke-width="8px" cx="-1039.3265063762665" cy="180.8975372314453"/><circle class="node node-id-3" r="94.86817524364893" fill="rgb(255, 255, 255)" stroke="rgb(0, 0, 0)" stroke-width="8px" cx="-1148.3130493164062" cy="-213.92787170410156"/><circle class="node node-id-4" r="154.4088886179093" fill="rgb(255, 255, 255)" stroke="rgb(0, 0, 0)" stroke-width="8px" cx="1017.369026184082" cy="-573.4111938476562"/><circle class="node node-id-5" r="86.54129983032438" fill="rgb(255, 255, 255)" stroke="rgb(0, 0, 0)" stroke-width="8px" cx="1097.573860168457" cy="-184.24465560913086"/><circle class="node node-id-6" r="88.0407586721947" fill="rgb(255, 255, 255)" stroke="rgb(0, 0, 0)" stroke-width="8px" cx="1055.4913370609283" cy="147.88478088378906"/><circle class="node node-id-7" r="100.52775696816107" fill="rgb(255, 255, 255)" stroke="rgb(0, 0, 0)" stroke-width="8px" cx="-387.6020965576172" cy="-771.6203002929688"/><circle class="node node-id-8" r="69.95185159579395" fill="rgb(255, 255, 255)" stroke="rgb(0, 0, 0)" stroke-width="8px" cx="276.25354766845703" cy="-771.6203002929688"/><g class="caption"><text class="caption node" text-anchor="middle" alignment-baseline="central" x="-15.756170511245728" y="-213.92787170410156" fill="rgb(51, 51, 51)" font-size="50px" font-family="&quot;Gill Sans&quot;, &quot;Gill Sans MT&quot;, Calibri, sans-serif">Movie</text></g><g class="caption"><text class="caption node" text-anchor="middle" alignment-baseline="central" x="-1084.8242797851562" y="-771.6203002929688" fill="rgb(51, 51, 51)" font-size="50px" font-family="&quot;Gill Sans&quot;, &quot;Gill Sans MT&quot;, Calibri, sans-serif">Actor</text></g><g class="caption"><text class="caption node" text-anchor="middle" alignment-baseline="central" x="-1039.3265063762665" y="180.8975372314453" fill="rgb(51, 51, 51)" font-size="50px" font-family="&quot;Gill Sans&quot;, &quot;Gill Sans MT&quot;, Calibri, sans-serif">Director</text></g><g class="caption"><text class="caption node" text-anchor="middle" alignment-baseline="central" x="-1148.3130493164062" y="-213.92787170410156" fill="rgb(51, 51, 51)" font-size="50px" font-family="&quot;Gill Sans&quot;, &quot;Gill Sans MT&quot;, Calibri, sans-serif">Writer</text></g><g class="caption"><text class="caption node" text-anchor="middle" alignment-baseline="central" x="1017.369026184082" y="-573.4111938476562" fill="rgb(51, 51, 51)" font-size="50px" font-family="&quot;Gill Sans&quot;, &quot;Gill Sans MT&quot;, Calibri, sans-serif">RunningTime</text></g><g class="caption"><text class="caption node" text-anchor="middle" alignment-baseline="central" x="1097.573860168457" y="-184.24465560913086" fill="rgb(51, 51, 51)" font-size="50px" font-family="&quot;Gill Sans&quot;, &quot;Gill Sans MT&quot;, Calibri, sans-serif">Rating</text></g><g class="caption"><text class="caption node" text-anchor="middle" alignment-baseline="central" x="1055.4913370609283" y="147.88478088378906" fill="rgb(51, 51, 51)" font-size="50px" font-family="&quot;Gill Sans&quot;, &quot;Gill Sans MT&quot;, Calibri, sans-serif">Genre</text></g><g class="caption"><text class="caption node" text-anchor="middle" alignment-baseline="central" x="-387.6020965576172" y="-771.6203002929688" fill="rgb(51, 51, 51)" font-size="50px" font-family="&quot;Gill Sans&quot;, &quot;Gill Sans MT&quot;, Calibri, sans-serif">Gender</text></g><g class="caption"><text class="caption node" text-anchor="middle" alignment-baseline="central" x="276.25354766845703" y="-771.6203002929688" fill="rgb(51, 51, 51)" font-size="50px" font-family="&quot;Gill Sans&quot;, &quot;Gill Sans MT&quot;, Calibri, sans-serif">Year</text></g></g><g class="layer properties"><g class="speech-bubble node-speech-bubble" transform="translate(-15.756170511245728,-128.5642702511301) "><path class="speech-bubble-outline" transform="scale(1,1) " d="M 0 0 L -10 20 L -123.20556640625 20 A 10 10 0 0 0 -133.20556640625 30 L -133.20556640625 130 A 10 10 0 0 0 -123.20556640625 140 L 123.20556640625 140 A 10 10 0 0 0 133.20556640625 130 L 133.20556640625 30 A 10 10 0 0 0 123.20556640625 20 L 10 20 Z" fill="rgb(255, 255, 255)" stroke="rgb(0, 0, 0)" stroke-width="3px"/><text class="speech-bubble-content property-key" x="60.55908203125" y="55" alignment-baseline="central" text-anchor="end" font-size="50px" font-family="&quot;Gill Sans&quot;, &quot;Gill Sans MT&quot;, Calibri, sans-serif" xml:space="preserve">movieid: </text><text class="speech-bubble-content property-key" x="60.55908203125" y="105" alignment-baseline="central" text-anchor="end" font-size="50px" font-family="&quot;Gill Sans&quot;, &quot;Gill Sans MT&quot;, Calibri, sans-serif" xml:space="preserve">title: </text><text class="speech-bubble-content property-value" x="60.55908203125" y="55" alignment-baseline="central" font-size="50px" font-family="&quot;Gill Sans&quot;, &quot;Gill Sans MT&quot;, Calibri, sans-serif">'...'.</text><text class="speech-bubble-content property-value" x="60.55908203125" y="105" alignment-baseline="central" font-size="50px" font-family="&quot;Gill Sans&quot;, &quot;Gill Sans MT&quot;, Calibri, sans-serif">'...',</text></g><g class="speech-bubble node-speech-bubble" transform="translate(-1168.4953986540982,-771.6203002929688) "><path class="speech-bubble-outline" transform="scale(-1,1) " d="M 0 0 L 20 -10 L 20 -50 A 10 10 0 0 1 30 -60 L 261.2255859375 -60 A 10 10 0 0 1 271.2255859375 -50 L 271.2255859375 50 A 10 10 0 0 1 261.2255859375 60 L 30 60 A 10 10 0 0 1 20 50 L 20 10 Z" fill="rgb(255, 255, 255)" stroke="rgb(0, 0, 0)" stroke-width="3px"/><text class="speech-bubble-content property-key" x="-92.646484375" y="-25" alignment-baseline="central" text-anchor="end" font-size="50px" font-family="&quot;Gill Sans&quot;, &quot;Gill Sans MT&quot;, Calibri, sans-serif" xml:space="preserve">actorid: </text><text class="speech-bubble-content property-key" x="-92.646484375" y="25" alignment-baseline="central" text-anchor="end" font-size="50px" font-family="&quot;Gill Sans&quot;, &quot;Gill Sans MT&quot;, Calibri, sans-serif" xml:space="preserve">name: </text><text class="speech-bubble-content property-value" x="-92.646484375" y="-25" alignment-baseline="central" font-size="50px" font-family="&quot;Gill Sans&quot;, &quot;Gill Sans MT&quot;, Calibri, sans-serif">'...',</text><text class="speech-bubble-content property-value" x="-92.646484375" y="25" alignment-baseline="central" font-size="50px" font-family="&quot;Gill Sans&quot;, &quot;Gill Sans MT&quot;, Calibri, sans-serif">'...'</text></g><g class="speech-bubble node-speech-bubble" transform="translate(-1150.361240184611,180.8975372314453) "><path class="speech-bubble-outline" transform="scale(-1,1) " d="M 0 0 L 20 -10 L 20 -125 A 10 10 0 0 1 30 -135 L 319.0869140625 -135 A 10 10 0 0 1 329.0869140625 -125 L 329.0869140625 125 A 10 10 0 0 1 319.0869140625 135 L 30 135 A 10 10 0 0 1 20 125 L 20 10 Z" fill="rgb(255, 255, 255)" stroke="rgb(0, 0, 0)" stroke-width="3px"/><text class="speech-bubble-content property-key" x="-92.646484375" y="-100" alignment-baseline="central" text-anchor="end" font-size="50px" font-family="&quot;Gill Sans&quot;, &quot;Gill Sans MT&quot;, Calibri, sans-serif" xml:space="preserve">directorid: </text><text class="speech-bubble-content property-key" x="-92.646484375" y="-50" alignment-baseline="central" text-anchor="end" font-size="50px" font-family="&quot;Gill Sans&quot;, &quot;Gill Sans MT&quot;, Calibri, sans-serif" xml:space="preserve">name: </text><text class="speech-bubble-content property-key" x="-92.646484375" y="0" alignment-baseline="central" text-anchor="end" font-size="50px" font-family="&quot;Gill Sans&quot;, &quot;Gill Sans MT&quot;, Calibri, sans-serif" xml:space="preserve">rate: </text><text class="speech-bubble-content property-key" x="-92.646484375" y="50" alignment-baseline="central" text-anchor="end" font-size="50px" font-family="&quot;Gill Sans&quot;, &quot;Gill Sans MT&quot;, Calibri, sans-serif" xml:space="preserve">gross: </text><text class="speech-bubble-content property-key" x="-92.646484375" y="100" alignment-baseline="central" text-anchor="end" font-size="50px" font-family="&quot;Gill Sans&quot;, &quot;Gill Sans MT&quot;, Calibri, sans-serif" xml:space="preserve">num: </text><text class="speech-bubble-content property-value" x="-92.646484375" y="-100" alignment-baseline="central" font-size="50px" font-family="&quot;Gill Sans&quot;, &quot;Gill Sans MT&quot;, Calibri, sans-serif">'...',</text><text class="speech-bubble-content property-value" x="-92.646484375" y="-50" alignment-baseline="central" font-size="50px" font-family="&quot;Gill Sans&quot;, &quot;Gill Sans MT&quot;, Calibri, sans-serif">'...',</text><text class="speech-bubble-content property-value" x="-92.646484375" y="0" alignment-baseline="central" font-size="50px" font-family="&quot;Gill Sans&quot;, &quot;Gill Sans MT&quot;, Calibri, sans-serif">'...',</text><text class="speech-bubble-content property-value" x="-92.646484375" y="50" alignment-baseline="central" font-size="50px" font-family="&quot;Gill Sans&quot;, &quot;Gill Sans MT&quot;, Calibri, sans-serif">'...',</text><text class="speech-bubble-content property-value" x="-92.646484375" y="100" alignment-baseline="central" font-size="50px" font-family="&quot;Gill Sans&quot;, &quot;Gill Sans MT&quot;, Calibri, sans-serif">'...'</text></g><g class="speech-bubble node-speech-bubble" transform="translate(-1243.1812245600552,-213.92787170410156) "><path class="speech-bubble-outline" transform="scale(-1,1) " d="M 0 0 L 20 -10 L 20 -50 A 10 10 0 0 1 30 -60 L 281.07421875 -60 A 10 10 0 0 1 291.07421875 -50 L 291.07421875 50 A 10 10 0 0 1 281.07421875 60 L 30 60 A 10 10 0 0 1 20 50 L 20 10 Z" fill="rgb(255, 255, 255)" stroke="rgb(0, 0, 0)" stroke-width="3px"/><text class="speech-bubble-content property-key" x="-92.646484375" y="-25" alignment-baseline="central" text-anchor="end" font-size="50px" font-family="&quot;Gill Sans&quot;, &quot;Gill Sans MT&quot;, Calibri, sans-serif" xml:space="preserve">writerid: </text><text class="speech-bubble-content property-key" x="-92.646484375" y="25" alignment-baseline="central" text-anchor="end" font-size="50px" font-family="&quot;Gill Sans&quot;, &quot;Gill Sans MT&quot;, Calibri, sans-serif" xml:space="preserve">name: </text><text class="speech-bubble-content property-value" x="-92.646484375" y="-25" alignment-baseline="central" font-size="50px" font-family="&quot;Gill Sans&quot;, &quot;Gill Sans MT&quot;, Calibri, sans-serif">'...',</text><text class="speech-bubble-content property-value" x="-92.646484375" y="25" alignment-baseline="central" font-size="50px" font-family="&quot;Gill Sans&quot;, &quot;Gill Sans MT&quot;, Calibri, sans-serif">'...'</text></g><g class="speech-bubble node-speech-bubble" transform="translate(1171.7779148019913,-573.4111938476562) "><path class="speech-bubble-outline" transform="scale(1,1) " d="M 0 0 L 20 -10 L 20 -75 A 10 10 0 0 1 30 -85 L 280.48828125 -85 A 10 10 0 0 1 290.48828125 -75 L 290.48828125 75 A 10 10 0 0 1 280.48828125 85 L 30 85 A 10 10 0 0 1 20 75 L 20 10 Z" fill="rgb(255, 255, 255)" stroke="rgb(0, 0, 0)" stroke-width="3px"/><text class="speech-bubble-content property-key" x="217.841796875" y="-50" alignment-baseline="central" text-anchor="end" font-size="50px" font-family="&quot;Gill Sans&quot;, &quot;Gill Sans MT&quot;, Calibri, sans-serif" xml:space="preserve">time: </text><text class="speech-bubble-content property-key" x="217.841796875" y="0" alignment-baseline="central" text-anchor="end" font-size="50px" font-family="&quot;Gill Sans&quot;, &quot;Gill Sans MT&quot;, Calibri, sans-serif" xml:space="preserve">addition: </text><text class="speech-bubble-content property-key" x="217.841796875" y="50" alignment-baseline="central" text-anchor="end" font-size="50px" font-family="&quot;Gill Sans&quot;, &quot;Gill Sans MT&quot;, Calibri, sans-serif" xml:space="preserve">time1: </text><text class="speech-bubble-content property-value" x="217.841796875" y="-50" alignment-baseline="central" font-size="50px" font-family="&quot;Gill Sans&quot;, &quot;Gill Sans MT&quot;, Calibri, sans-serif">'...',</text><text class="speech-bubble-content property-value" x="217.841796875" y="0" alignment-baseline="central" font-size="50px" font-family="&quot;Gill Sans&quot;, &quot;Gill Sans MT&quot;, Calibri, sans-serif">'...;</text><text class="speech-bubble-content property-value" x="217.841796875" y="50" alignment-baseline="central" font-size="50px" font-family="&quot;Gill Sans&quot;, &quot;Gill Sans MT&quot;, Calibri, sans-serif">'...'</text></g><g class="speech-bubble node-speech-bubble" transform="translate(1184.1151599987813,-184.24465560913086) "><path class="speech-bubble-outline" transform="scale(1,1) " d="M 0 0 L 20 -10 L 20 -75 A 10 10 0 0 1 30 -85 L 350.80078125 -85 A 10 10 0 0 1 360.80078125 -75 L 360.80078125 75 A 10 10 0 0 1 350.80078125 85 L 30 85 A 10 10 0 0 1 20 75 L 20 10 Z" fill="rgb(255, 255, 255)" stroke="rgb(0, 0, 0)" stroke-width="3px"/><text class="speech-bubble-content property-key" x="288.154296875" y="-50" alignment-baseline="central" text-anchor="end" font-size="50px" font-family="&quot;Gill Sans&quot;, &quot;Gill Sans MT&quot;, Calibri, sans-serif" xml:space="preserve">rank: </text><text class="speech-bubble-content property-key" x="288.154296875" y="0" alignment-baseline="central" text-anchor="end" font-size="50px" font-family="&quot;Gill Sans&quot;, &quot;Gill Sans MT&quot;, Calibri, sans-serif" xml:space="preserve">votes: </text><text class="speech-bubble-content property-key" x="288.154296875" y="50" alignment-baseline="central" text-anchor="end" font-size="50px" font-family="&quot;Gill Sans&quot;, &quot;Gill Sans MT&quot;, Calibri, sans-serif" xml:space="preserve">distribution: </text><text class="speech-bubble-content property-value" x="288.154296875" y="-50" alignment-baseline="central" font-size="50px" font-family="&quot;Gill Sans&quot;, &quot;Gill Sans MT&quot;, Calibri, sans-serif">'...',</text><text class="speech-bubble-content property-value" x="288.154296875" y="0" alignment-baseline="central" font-size="50px" font-family="&quot;Gill Sans&quot;, &quot;Gill Sans MT&quot;, Calibri, sans-serif">'...',</text><text class="speech-bubble-content property-value" x="288.154296875" y="50" alignment-baseline="central" font-size="50px" font-family="&quot;Gill Sans&quot;, &quot;Gill Sans MT&quot;, Calibri, sans-serif">'...'</text></g><g class="speech-bubble node-speech-bubble" transform="translate(-287.07433958945614,-771.6203002929688) "><path class="speech-bubble-outline" transform="scale(1,1) " d="M 0 0 L 20 -10 L 20 -25 A 10 10 0 0 1 30 -35 L 255.244140625 -35 A 10 10 0 0 1 265.244140625 -25 L 265.244140625 25 A 10 10 0 0 1 255.244140625 35 L 30 35 A 10 10 0 0 1 20 25 L 20 10 Z" fill="rgb(255, 255, 255)" stroke="rgb(0, 0, 0)" stroke-width="3px"/><text class="speech-bubble-content property-key" x="196.3818359375" y="0" alignment-baseline="central" text-anchor="end" font-size="50px" font-family="&quot;Gill Sans&quot;, &quot;Gill Sans MT&quot;, Calibri, sans-serif" xml:space="preserve">gender: </text><text class="speech-bubble-content property-value" x="196.3818359375" y="0" alignment-baseline="central" font-size="50px" font-family="&quot;Gill Sans&quot;, &quot;Gill Sans MT&quot;, Calibri, sans-serif">"F"</text></g><g class="speech-bubble relationship-speech-bubble" transform="translate(-593.2823230184873,-213.92787170410156) "><path class="speech-bubble-outline" transform="scale(1,1) " d="M 0 0 L -10 20 L -119.76318359375 20 A 10 10 0 0 0 -129.76318359375 30 L -129.76318359375 80 A 10 10 0 0 0 -119.76318359375 90 L 119.76318359375 90 A 10 10 0 0 0 129.76318359375 80 L 129.76318359375 30 A 10 10 0 0 0 119.76318359375 20 L 10 20 Z" fill="rgb(255, 255, 255)" stroke="rgb(0, 0, 0)" stroke-width="3px"/><text class="speech-bubble-content property-key" x="68.07861328125" y="55" alignment-baseline="central" text-anchor="end" font-size="50px" font-family="&quot;Gill Sans&quot;, &quot;Gill Sans MT&quot;, Calibri, sans-serif" xml:space="preserve">addition: </text><text class="speech-bubble-content property-value" x="68.07861328125" y="55" alignment-baseline="central" font-size="50px" font-family="&quot;Gill Sans&quot;, &quot;Gill Sans MT&quot;, Calibri, sans-serif">'...'</text></g><g class="speech-bubble relationship-speech-bubble" transform="translate(-565.2263185525186,-500.5656814376148) "><path class="speech-bubble-outline" transform="scale(-1,1) " d="M 0 0 L 30 20 L 379.3408203125 20 A 10 10 0 0 1 389.3408203125 30 L 389.3408203125 130 A 10 10 0 0 1 379.3408203125 140 L 30 140 A 10 10 0 0 1 20 130 L 20 30 Z" fill="rgb(255, 255, 255)" stroke="rgb(0, 0, 0)" stroke-width="3px"/><text class="speech-bubble-content property-key" x="-92.646484375" y="55" alignment-baseline="central" text-anchor="end" font-size="50px" font-family="&quot;Gill Sans&quot;, &quot;Gill Sans MT&quot;, Calibri, sans-serif" xml:space="preserve">as_character: </text><text class="speech-bubble-content property-key" x="-92.646484375" y="105" alignment-baseline="central" text-anchor="end" font-size="50px" font-family="&quot;Gill Sans&quot;, &quot;Gill Sans MT&quot;, Calibri, sans-serif" xml:space="preserve">leading: </text><text class="speech-bubble-content property-value" x="-92.646484375" y="55" alignment-baseline="central" font-size="50px" font-family="&quot;Gill Sans&quot;, &quot;Gill Sans MT&quot;, Calibri, sans-serif">'...',</text><text class="speech-bubble-content property-value" x="-92.646484375" y="105" alignment-baseline="central" font-size="50px" font-family="&quot;Gill Sans&quot;, &quot;Gill Sans MT&quot;, Calibri, sans-serif">'...'</text></g></g><g class="layer overlay"><circle class="node overlay" r="89.36360145297148" stroke="none" fill="rgba(255, 255, 255, 0)" cx="-15.756170511245728" cy="-213.92787170410156"/><circle class="node overlay" r="87.67111886894182" stroke="none" fill="rgba(255, 255, 255, 0)" cx="-1084.8242797851562" cy="-771.6203002929688"/><circle class="node overlay" r="115.03473380834461" stroke="none" fill="rgba(255, 255, 255, 0)" cx="-1039.3265063762665" cy="180.8975372314453"/><circle class="node overlay" r="98.86817524364893" stroke="none" fill="rgba(255, 255, 255, 0)" cx="-1148.3130493164062" cy="-213.92787170410156"/><circle class="node overlay" r="158.4088886179093" stroke="none" fill="rgba(255, 255, 255, 0)" cx="1017.369026184082" cy="-573.4111938476562"/><circle class="node overlay" r="90.54129983032438" stroke="none" fill="rgba(255, 255, 255, 0)" cx="1097.573860168457" cy="-184.24465560913086"/><circle class="node overlay" r="92.0407586721947" stroke="none" fill="rgba(255, 255, 255, 0)" cx="1055.4913370609283" cy="147.88478088378906"/><circle class="node overlay" r="104.52775696816107" stroke="none" fill="rgba(255, 255, 255, 0)" cx="-387.6020965576172" cy="-771.6203002929688"/><circle class="node overlay" r="73.95185159579395" stroke="none" fill="rgba(255, 255, 255, 0)" cx="276.25354766845703" cy="-771.6203002929688"/><circle class="node ring" r="94.36360145297148" fill="none" stroke="rgba(255, 255, 255, 0)" stroke-width="10px" cx="-15.756170511245728" cy="-213.92787170410156"/><circle class="node ring" r="92.67111886894182" fill="none" stroke="rgba(255, 255, 255, 0)" stroke-width="10px" cx="-1084.8242797851562" cy="-771.6203002929688"/><circle class="node ring" r="120.03473380834461" fill="none" stroke="rgba(255, 255, 255, 0)" stroke-width="10px" cx="-1039.3265063762665" cy="180.8975372314453"/><circle class="node ring" r="103.86817524364893" fill="none" stroke="rgba(255, 255, 255, 0)" stroke-width="10px" cx="-1148.3130493164062" cy="-213.92787170410156"/><circle class="node ring" r="163.4088886179093" fill="none" stroke="rgba(255, 255, 255, 0)" stroke-width="10px" cx="1017.369026184082" cy="-573.4111938476562"/><circle class="node ring" r="95.54129983032438" fill="none" stroke="rgba(255, 255, 255, 0)" stroke-width="10px" cx="1097.573860168457" cy="-184.24465560913086"/><circle class="node ring" r="97.0407586721947" fill="none" stroke="rgba(255, 255, 255, 0)" stroke-width="10px" cx="1055.4913370609283" cy="147.88478088378906"/><circle class="node ring" r="109.52775696816107" fill="none" stroke="rgba(255, 255, 255, 0)" stroke-width="10px" cx="-387.6020965576172" cy="-771.6203002929688"/><circle class="node ring" r="78.95185159579395" fill="none" stroke="rgba(255, 255, 255, 0)" stroke-width="10px" cx="276.25354766845703" cy="-771.6203002929688"/><path class="relationship overlay" fill="rgba(255, 255, 255, 0)" stroke="rgba(255, 255, 255, 0)" stroke-width="10px" transform="translate(-1148.3130493164062,-213.92787170410156) rotate(0)" d="M 109.86817524364893 4 L 1000.1932773521889 4 L 1000.1932773521889 16 L 1032.193277352189 0 L 1000.1932773521889 -16 L 1000.1932773521889 -4 L 109.86817524364893 -4 Z"/><path class="relationship overlay" fill="rgba(255, 255, 255, 0)" stroke="rgba(255, 255, 255, 0)" stroke-width="10px" transform="translate(-1039.3265063762665,180.8975372314453) rotate(-21.093299809558044)" d="M 126.03473380834461 4 L 964.7158560176136 4 L 964.7158560176136 16 L 996.7158560176136 0 L 964.7158560176136 -16 L 964.7158560176136 -4 L 126.03473380834461 -4 Z"/><path class="relationship overlay" fill="rgba(255, 255, 255, 0)" stroke="rgba(255, 255, 255, 0)" stroke-width="10px" transform="translate(-1084.8242797851562,-771.6203002929688) rotate(27.549347085580294)" d="M 98.67111886894182 4 L 1073.4255456087535 4 L 1073.4255456087535 16 L 1105.4255456087535 0 L 1073.4255456087535 -16 L 1073.4255456087535 -4 L 98.67111886894182 -4 Z"/><path class="relationship overlay" fill="rgba(255, 255, 255, 0)" stroke="rgba(255, 255, 255, 0)" stroke-width="10px" transform="translate(-15.756170511245728,-213.92787170410156) rotate(-19.185707802144574)" d="M 100.36360145297148 4 L 892.4722433823306 4 L 892.4722433823306 16 L 924.4722433823306 0 L 892.4722433823306 -16 L 892.4722433823306 -4 L 100.36360145297148 -4 Z"/><path class="relationship overlay" fill="rgba(255, 255, 255, 0)" stroke="rgba(255, 255, 255, 0)" stroke-width="10px" transform="translate(-15.756170511245728,-213.92787170410156) rotate(1.5272382374128748)" d="M 100.36360145297148 4 L 980.1843623194749 4 L 980.1843623194749 16 L 1012.1843623194749 0 L 980.1843623194749 -16 L 980.1843623194749 -4 L 100.36360145297148 -4 Z"/><path class="relationship overlay" fill="rgba(255, 255, 255, 0)" stroke="rgba(255, 255, 255, 0)" stroke-width="10px" transform="translate(-15.756170511245728,-213.92787170410156) rotate(18.662339702595084)" d="M 100.36360145297148 4 L 995.6579713404824 4 L 995.6579713404824 16 L 1027.6579713404824 0 L 995.6579713404824 -16 L 995.6579713404824 -4 L 100.36360145297148 -4 Z"/><path class="relationship overlay" fill="rgba(255, 255, 255, 0)" stroke="rgba(255, 255, 255, 0)" stroke-width="10px" transform="translate(-1084.8242797851562,-771.6203002929688) rotate(0)" d="M 98.67111886894182 4 L 549.694426259378 4 L 549.694426259378 16 L 581.694426259378 0 L 549.694426259378 -16 L 549.694426259378 -4 L 98.67111886894182 -4 Z"/><path class="relationship overlay" fill="rgba(255, 255, 255, 0)" stroke="rgba(255, 255, 255, 0)" stroke-width="10px" transform="translate(-15.756170511245728,-213.92787170410156) rotate(-62.36328736285207)" d="M 100.36360145297148 4 L 512.5642486087505 4 L 512.5642486087505 16 L 544.5642486087505 0 L 512.5642486087505 -16 L 512.5642486087505 -4 L 100.36360145297148 -4 Z"/></g></svg>