<svg xmlns="http://www.w3.org/2000/svg" class="graphdiagram" viewBox="-1326.0225123089685 -873.734979073151 2695.771400335094 1842.1104568956475"><g class="layer relationships"><g class="related-pair"><g class="relationship" transform="translate(-966.3663635253906,304.67830657958984) rotate(-26.76952791870454)"><path class="relationship" d="M 109.86817524364893 4 L 770.6923269521326 4 L 770.6923269521326 16 L 802.6923269521326 0 L 770.6923269521326 -16 L 770.6923269521326 -4 L 109.86817524364893 -4 Z" fill="rgb(0, 0, 0)" stroke="rgb(51, 51, 51)" stroke-width="0px"/><text class="type" text-anchor="middle" baseline-shift="30%" alignment-baseline="alphabetic" x="440.28025109789075" y="0" font-size="50px" font-family="&quot;Gill Sans&quot;, &quot;Gill Sans MT&quot;, Calibri, sans-serif">:WROTE</text></g></g><g class="related-pair"><g class="relationship" transform="translate(-160.0950152873993,498.6824188232422) rotate(-90)"><path class="relationship" d="M 126.03473380834461 4 L 468.3793985775461 4 L 468.3793985775461 16 L 500.3793985775461 0 L 468.3793985775461 -16 L 468.3793985775461 -4 L 126.03473380834461 -4 Z" fill="rgb(0, 0, 0)" stroke="rgb(51, 51, 51)" stroke-width="0px"/><text class="type" text-anchor="middle" baseline-shift="30%" alignment-baseline="alphabetic" x="297.2070661929454" y="0" font-size="50px" font-family="&quot;Gill Sans&quot;, &quot;Gill Sans MT&quot;, Calibri, sans-serif">:DIRECTED</text></g></g><g class="related-pair"><g class="relationship" transform="translate(-874.1012573242188,-456.59637451171875) rotate(26.406438806961322)"><path class="relationship" d="M 98.67111886894182 4 L 664.8192774409196 4 L 664.8192774409196 16 L 696.8192774409196 0 L 664.8192774409196 -16 L 664.8192774409196 -4 L 98.67111886894182 -4 Z" fill="rgb(0, 0, 0)" stroke="rgb(51, 51, 51)" stroke-width="0px"/><text class="type" text-anchor="middle" baseline-shift="30%" alignment-baseline="alphabetic" x="381.7451981549307" y="0" font-size="50px" font-family="&quot;Gill Sans&quot;, &quot;Gill Sans MT&quot;, Calibri, sans-serif">:ACTED_IN</text></g></g><g class="related-pair"><g class="relationship" transform="translate(-160.0950152873993,-102.06058120727539) rotate(-28.205396075169173)"><path class="relationship" d="M 100.36360145297148 4 L 653.0211834980394 4 L 653.0211834980394 16 L 685.0211834980394 0 L 653.0211834980394 -16 L 653.0211834980394 -4 L 100.36360145297148 -4 Z" fill="rgb(0, 0, 0)" stroke="rgb(51, 51, 51)" stroke-width="0px"/><text class="type" text-anchor="middle" baseline-shift="30%" alignment-baseline="alphabetic" x="376.6923924755054" y="0" font-size="50px" font-family="&quot;Gill Sans&quot;, &quot;Gill Sans MT&quot;, Calibri, sans-serif">RUNS_FOR</text></g></g><g class="related-pair"><g class="relationship" transform="translate(-160.0950152873993,-102.06058120727539) rotate(11.831385212624319)"><path class="relationship" d="M 100.36360145297148 4 L 970.9246541693511 4 L 970.9246541693511 16 L 1002.9246541693511 0 L 970.9246541693511 -16 L 970.9246541693511 -4 L 100.36360145297148 -4 Z" fill="rgb(0, 0, 0)" stroke="rgb(51, 51, 51)" stroke-width="0px"/><text class="type" text-anchor="middle" baseline-shift="30%" alignment-baseline="alphabetic" x="535.6441278111613" y="0" font-size="50px" font-family="&quot;Gill Sans&quot;, &quot;Gill Sans MT&quot;, Calibri, sans-serif">IS_GIVEN</text></g></g></g><g class="layer nodes"><circle class="node node-id-0" r="85.36360145297148" fill="rgb(255, 255, 255)" stroke="rgb(0, 0, 0)" stroke-width="8px" cx="-160.0950152873993" cy="-102.06058120727539"/><g class="caption"><text class="caption node" text-anchor="middle" alignment-baseline="central" x="-160.0950152873993" y="-102.06058120727539" fill="rgb(51, 51, 51)" font-size="50px" font-family="&quot;Gill Sans&quot;, &quot;Gill Sans MT&quot;, Calibri, sans-serif">Movie</text></g><circle class="node node-id-1" r="83.67111886894182" fill="rgb(255, 255, 255)" stroke="rgb(0, 0, 0)" stroke-width="8px" cx="-874.1012573242188" cy="-456.59637451171875"/><g class="caption"><text class="caption node" text-anchor="middle" alignment-baseline="central" x="-874.1012573242188" y="-456.59637451171875" fill="rgb(51, 51, 51)" font-size="50px" font-family="&quot;Gill Sans&quot;, &quot;Gill Sans MT&quot;, Calibri, sans-serif">Actor</text></g><circle class="node node-id-2" r="111.03473380834461" fill="rgb(255, 255, 255)" stroke="rgb(0, 0, 0)" stroke-width="8px" cx="-160.0950152873993" cy="498.6824188232422"/><g class="caption"><text class="caption node" text-anchor="middle" alignment-baseline="central" x="-160.0950152873993" y="498.6824188232422" fill="rgb(51, 51, 51)" font-size="50px" font-family="&quot;Gill Sans&quot;, &quot;Gill Sans MT&quot;, Calibri, sans-serif">Director</text></g><circle class="node node-id-3" r="94.86817524364893" fill="rgb(255, 255, 255)" stroke="rgb(0, 0, 0)" stroke-width="8px" cx="-966.3663635253906" cy="304.67830657958984"/><g class="caption"><text class="caption node" text-anchor="middle" alignment-baseline="central" x="-966.3663635253906" y="304.67830657958984" fill="rgb(51, 51, 51)" font-size="50px" font-family="&quot;Gill Sans&quot;, &quot;Gill Sans MT&quot;, Calibri, sans-serif">Writer</text></g><circle class="node node-id-4" r="154.4088886179093" fill="rgb(255, 255, 255)" stroke="rgb(0, 0, 0)" stroke-width="8px" cx="592.8791275024414" cy="-505.89308166503906"/><g class="caption"><text class="caption node" text-anchor="middle" alignment-baseline="central" x="592.8791275024414" y="-505.89308166503906" fill="rgb(51, 51, 51)" font-size="50px" font-family="&quot;Gill Sans&quot;, &quot;Gill Sans MT&quot;, Calibri, sans-serif">RunningTime</text></g><circle class="node node-id-5" r="86.54129983032438" fill="rgb(255, 255, 255)" stroke="rgb(0, 0, 0)" stroke-width="8px" cx="920.9068069458008" cy="124.3905258178711"/><g class="caption"><text class="caption node" text-anchor="middle" alignment-baseline="central" x="920.9068069458008" y="124.3905258178711" fill="rgb(51, 51, 51)" font-size="50px" font-family="&quot;Gill Sans&quot;, &quot;Gill Sans MT&quot;, Calibri, sans-serif">Rating</text></g></g><g class="layer properties"><g class="speech-bubble node-speech-bubble" transform="translate(-160.0950152873993,-187.42418266024686) "><path class="speech-bubble-outline" transform="scale(1,-1) " d="M 0 0 L -10 20 L -123.20556640625 20 A 10 10 0 0 0 -133.20556640625 30 L -133.20556640625 180 A 10 10 0 0 0 -123.20556640625 190 L 123.20556640625 190 A 10 10 0 0 0 133.20556640625 180 L 133.20556640625 30 A 10 10 0 0 0 123.20556640625 20 L 10 20 Z" fill="rgb(255, 255, 255)" stroke="rgb(0, 0, 0)" stroke-width="3px"/><text class="speech-bubble-content property-key" x="60.55908203125" y="-155" alignment-baseline="central" text-anchor="end" font-size="50px" font-family="&quot;Gill Sans&quot;, &quot;Gill Sans MT&quot;, Calibri, sans-serif" xml:space="preserve">movieid: </text><text class="speech-bubble-content property-key" x="60.55908203125" y="-105" alignment-baseline="central" text-anchor="end" font-size="50px" font-family="&quot;Gill Sans&quot;, &quot;Gill Sans MT&quot;, Calibri, sans-serif" xml:space="preserve">title: </text><text class="speech-bubble-content property-key" x="60.55908203125" y="-55" alignment-baseline="central" text-anchor="end" font-size="50px" font-family="&quot;Gill Sans&quot;, &quot;Gill Sans MT&quot;, Calibri, sans-serif" xml:space="preserve">year: </text><text class="speech-bubble-content property-value" x="60.55908203125" y="-155" alignment-baseline="central" font-size="50px" font-family="&quot;Gill Sans&quot;, &quot;Gill Sans MT&quot;, Calibri, sans-serif">'...'.</text><text class="speech-bubble-content property-value" x="60.55908203125" y="-105" alignment-baseline="central" font-size="50px" font-family="&quot;Gill Sans&quot;, &quot;Gill Sans MT&quot;, Calibri, sans-serif">'...',</text><text class="speech-bubble-content property-value" x="60.55908203125" y="-55" alignment-baseline="central" font-size="50px" font-family="&quot;Gill Sans&quot;, &quot;Gill Sans MT&quot;, Calibri, sans-serif">'...'</text></g><g class="speech-bubble node-speech-bubble" transform="translate(-933.2656728659132,-515.7607900534132) "><path class="speech-bubble-outline" transform="scale(-1,-1) " d="M 0 0 L 30 20 L 261.2255859375 20 A 10 10 0 0 1 271.2255859375 30 L 271.2255859375 180 A 10 10 0 0 1 261.2255859375 190 L 30 190 A 10 10 0 0 1 20 180 L 20 30 Z" fill="rgb(255, 255, 255)" stroke="rgb(0, 0, 0)" stroke-width="3px"/><text class="speech-bubble-content property-key" x="-92.646484375" y="-155" alignment-baseline="central" text-anchor="end" font-size="50px" font-family="&quot;Gill Sans&quot;, &quot;Gill Sans MT&quot;, Calibri, sans-serif" xml:space="preserve">actorid: </text><text class="speech-bubble-content property-key" x="-92.646484375" y="-105" alignment-baseline="central" text-anchor="end" font-size="50px" font-family="&quot;Gill Sans&quot;, &quot;Gill Sans MT&quot;, Calibri, sans-serif" xml:space="preserve">name: </text><text class="speech-bubble-content property-value" x="-92.646484375" y="-155" alignment-baseline="central" font-size="50px" font-family="&quot;Gill Sans&quot;, &quot;Gill Sans MT&quot;, Calibri, sans-serif">'...',</text><text class="speech-bubble-content property-value" x="-92.646484375" y="-105" alignment-baseline="central" font-size="50px" font-family="&quot;Gill Sans&quot;, &quot;Gill Sans MT&quot;, Calibri, sans-serif">'...'</text><text class="speech-bubble-content property-key" x="-92.646484375" y="-55" alignment-baseline="central" text-anchor="end" font-size="50px" font-family="&quot;Gill Sans&quot;, &quot;Gill Sans MT&quot;, Calibri, sans-serif" xml:space="preserve">sex: </text><text class="speech-bubble-content property-value" x="-92.646484375" y="-55" alignment-baseline="central" font-size="50px" font-family="&quot;Gill Sans&quot;, &quot;Gill Sans MT&quot;, Calibri, sans-serif">'...'</text></g><g class="speech-bubble node-speech-bubble" transform="translate(-160.0950152873993,609.7171526315868) "><path class="speech-bubble-outline" transform="scale(1,1) " d="M 0 0 L -10 20 L -144.54345703125 20 A 10 10 0 0 0 -154.54345703125 30 L -154.54345703125 280 A 10 10 0 0 0 -144.54345703125 290 L 144.54345703125 290 A 10 10 0 0 0 154.54345703125 280 L 154.54345703125 30 A 10 10 0 0 0 144.54345703125 20 L 10 20 Z" fill="rgb(255, 255, 255)" stroke="rgb(0, 0, 0)" stroke-width="3px"/><text class="speech-bubble-content property-key" x="81.89697265625" y="55" alignment-baseline="central" text-anchor="end" font-size="50px" font-family="&quot;Gill Sans&quot;, &quot;Gill Sans MT&quot;, Calibri, sans-serif" xml:space="preserve">directorid: </text><text class="speech-bubble-content property-key" x="81.89697265625" y="105" alignment-baseline="central" text-anchor="end" font-size="50px" font-family="&quot;Gill Sans&quot;, &quot;Gill Sans MT&quot;, Calibri, sans-serif" xml:space="preserve">name: </text><text class="speech-bubble-content property-value" x="81.89697265625" y="55" alignment-baseline="central" font-size="50px" font-family="&quot;Gill Sans&quot;, &quot;Gill Sans MT&quot;, Calibri, sans-serif">'...',</text><text class="speech-bubble-content property-value" x="81.89697265625" y="105" alignment-baseline="central" font-size="50px" font-family="&quot;Gill Sans&quot;, &quot;Gill Sans MT&quot;, Calibri, sans-serif">'...',</text><text class="speech-bubble-content property-key" x="81.89697265625" y="155" alignment-baseline="central" text-anchor="end" font-size="50px" font-family="&quot;Gill Sans&quot;, &quot;Gill Sans MT&quot;, Calibri, sans-serif" xml:space="preserve">rate: </text><text class="speech-bubble-content property-key" x="81.89697265625" y="205" alignment-baseline="central" text-anchor="end" font-size="50px" font-family="&quot;Gill Sans&quot;, &quot;Gill Sans MT&quot;, Calibri, sans-serif" xml:space="preserve">gross: </text><text class="speech-bubble-content property-key" x="81.89697265625" y="255" alignment-baseline="central" text-anchor="end" font-size="50px" font-family="&quot;Gill Sans&quot;, &quot;Gill Sans MT&quot;, Calibri, sans-serif" xml:space="preserve">num: </text><text class="speech-bubble-content property-value" x="81.89697265625" y="155" alignment-baseline="central" font-size="50px" font-family="&quot;Gill Sans&quot;, &quot;Gill Sans MT&quot;, Calibri, sans-serif">'...',</text><text class="speech-bubble-content property-value" x="81.89697265625" y="205" alignment-baseline="central" font-size="50px" font-family="&quot;Gill Sans&quot;, &quot;Gill Sans MT&quot;, Calibri, sans-serif">'...',</text><text class="speech-bubble-content property-value" x="81.89697265625" y="255" alignment-baseline="central" font-size="50px" font-family="&quot;Gill Sans&quot;, &quot;Gill Sans MT&quot;, Calibri, sans-serif">'...'</text></g><g class="speech-bubble node-speech-bubble" transform="translate(-1033.4482935589685,371.76023661316776) "><path class="speech-bubble-outline" transform="scale(-1,1) " d="M 0 0 L 30 20 L 281.07421875 20 A 10 10 0 0 1 291.07421875 30 L 291.07421875 130 A 10 10 0 0 1 281.07421875 140 L 30 140 A 10 10 0 0 1 20 130 L 20 30 Z" fill="rgb(255, 255, 255)" stroke="rgb(0, 0, 0)" stroke-width="3px"/><text class="speech-bubble-content property-key" x="-92.646484375" y="55" alignment-baseline="central" text-anchor="end" font-size="50px" font-family="&quot;Gill Sans&quot;, &quot;Gill Sans MT&quot;, Calibri, sans-serif" xml:space="preserve">writerid: </text><text class="speech-bubble-content property-key" x="-92.646484375" y="105" alignment-baseline="central" text-anchor="end" font-size="50px" font-family="&quot;Gill Sans&quot;, &quot;Gill Sans MT&quot;, Calibri, sans-serif" xml:space="preserve">name: </text><text class="speech-bubble-content property-value" x="-92.646484375" y="55" alignment-baseline="central" font-size="50px" font-family="&quot;Gill Sans&quot;, &quot;Gill Sans MT&quot;, Calibri, sans-serif">'...',</text><text class="speech-bubble-content property-value" x="-92.646484375" y="105" alignment-baseline="central" font-size="50px" font-family="&quot;Gill Sans&quot;, &quot;Gill Sans MT&quot;, Calibri, sans-serif">'...'</text></g><g class="speech-bubble relationship-speech-bubble" transform="translate(-573.2729343263809,106.3748637769373) "><path class="speech-bubble-outline" transform="scale(1,1) " d="M 0 0 L 30 20 L 269.5263671875 20 A 10 10 0 0 1 279.5263671875 30 L 279.5263671875 80 A 10 10 0 0 1 269.5263671875 90 L 30 90 A 10 10 0 0 1 20 80 L 20 30 Z" fill="rgb(255, 255, 255)" stroke="rgb(0, 0, 0)" stroke-width="3px"/><text class="speech-bubble-content property-key" x="217.841796875" y="55" alignment-baseline="central" text-anchor="end" font-size="50px" font-family="&quot;Gill Sans&quot;, &quot;Gill Sans MT&quot;, Calibri, sans-serif" xml:space="preserve">addition: </text><text class="speech-bubble-content property-value" x="217.841796875" y="55" alignment-baseline="central" font-size="50px" font-family="&quot;Gill Sans&quot;, &quot;Gill Sans MT&quot;, Calibri, sans-serif">'...'</text></g><g class="speech-bubble relationship-speech-bubble" transform="translate(-160.0950152873993,201.4753526302968) "><path class="speech-bubble-outline" transform="scale(1,1) " d="M 0 0 L 20 -10 L 20 -25 A 10 10 0 0 1 30 -35 L 219.5751953125 -35 A 10 10 0 0 1 229.5751953125 -25 L 229.5751953125 25 A 10 10 0 0 1 219.5751953125 35 L 30 35 A 10 10 0 0 1 20 25 L 20 10 Z" fill="rgb(255, 255, 255)" stroke="rgb(0, 0, 0)" stroke-width="3px"/><text class="speech-bubble-content property-key" x="167.890625" y="0" alignment-baseline="central" text-anchor="end" font-size="50px" font-family="&quot;Gill Sans&quot;, &quot;Gill Sans MT&quot;, Calibri, sans-serif" xml:space="preserve">genre: </text><text class="speech-bubble-content property-value" x="167.890625" y="0" alignment-baseline="central" font-size="50px" font-family="&quot;Gill Sans&quot;, &quot;Gill Sans MT&quot;, Calibri, sans-serif">'...'</text></g><g class="speech-bubble relationship-speech-bubble" transform="translate(-532.1866708890486,-286.8206050473635) "><path class="speech-bubble-outline" transform="scale(-1,1) " d="M 0 0 L 30 20 L 379.3408203125 20 A 10 10 0 0 1 389.3408203125 30 L 389.3408203125 130 A 10 10 0 0 1 379.3408203125 140 L 30 140 A 10 10 0 0 1 20 130 L 20 30 Z" fill="rgb(255, 255, 255)" stroke="rgb(0, 0, 0)" stroke-width="3px"/><text class="speech-bubble-content property-key" x="-92.646484375" y="55" alignment-baseline="central" text-anchor="end" font-size="50px" font-family="&quot;Gill Sans&quot;, &quot;Gill Sans MT&quot;, Calibri, sans-serif" xml:space="preserve">as_character: </text><text class="speech-bubble-content property-key" x="-92.646484375" y="105" alignment-baseline="central" text-anchor="end" font-size="50px" font-family="&quot;Gill Sans&quot;, &quot;Gill Sans MT&quot;, Calibri, sans-serif" xml:space="preserve">leading: </text><text class="speech-bubble-content property-value" x="-92.646484375" y="55" alignment-baseline="central" font-size="50px" font-family="&quot;Gill Sans&quot;, &quot;Gill Sans MT&quot;, Calibri, sans-serif">'...',</text><text class="speech-bubble-content property-value" x="-92.646484375" y="105" alignment-baseline="central" font-size="50px" font-family="&quot;Gill Sans&quot;, &quot;Gill Sans MT&quot;, Calibri, sans-serif">'...'</text></g><g class="speech-bubble node-speech-bubble" transform="translate(702.0626997196434,-615.0766538822411) "><path class="speech-bubble-outline" transform="scale(1,-1) " d="M 0 0 L 30 20 L 280.48828125 20 A 10 10 0 0 1 290.48828125 30 L 290.48828125 180 A 10 10 0 0 1 280.48828125 190 L 30 190 A 10 10 0 0 1 20 180 L 20 30 Z" fill="rgb(255, 255, 255)" stroke="rgb(0, 0, 0)" stroke-width="3px"/><text class="speech-bubble-content property-key" x="217.841796875" y="-155" alignment-baseline="central" text-anchor="end" font-size="50px" font-family="&quot;Gill Sans&quot;, &quot;Gill Sans MT&quot;, Calibri, sans-serif" xml:space="preserve">time: </text><text class="speech-bubble-content property-key" x="217.841796875" y="-105" alignment-baseline="central" text-anchor="end" font-size="50px" font-family="&quot;Gill Sans&quot;, &quot;Gill Sans MT&quot;, Calibri, sans-serif" xml:space="preserve">addition: </text><text class="speech-bubble-content property-key" x="217.841796875" y="-55" alignment-baseline="central" text-anchor="end" font-size="50px" font-family="&quot;Gill Sans&quot;, &quot;Gill Sans MT&quot;, Calibri, sans-serif" xml:space="preserve">time1: </text><text class="speech-bubble-content property-value" x="217.841796875" y="-155" alignment-baseline="central" font-size="50px" font-family="&quot;Gill Sans&quot;, &quot;Gill Sans MT&quot;, Calibri, sans-serif">'...',</text><text class="speech-bubble-content property-value" x="217.841796875" y="-105" alignment-baseline="central" font-size="50px" font-family="&quot;Gill Sans&quot;, &quot;Gill Sans MT&quot;, Calibri, sans-serif">'...;</text><text class="speech-bubble-content property-value" x="217.841796875" y="-55" alignment-baseline="central" font-size="50px" font-family="&quot;Gill Sans&quot;, &quot;Gill Sans MT&quot;, Calibri, sans-serif">'...'</text></g><g class="speech-bubble node-speech-bubble" transform="translate(1007.4481067761252,124.3905258178711) "><path class="speech-bubble-outline" transform="scale(1,1) " d="M 0 0 L 20 -10 L 20 -75 A 10 10 0 0 1 30 -85 L 350.80078125 -85 A 10 10 0 0 1 360.80078125 -75 L 360.80078125 75 A 10 10 0 0 1 350.80078125 85 L 30 85 A 10 10 0 0 1 20 75 L 20 10 Z" fill="rgb(255, 255, 255)" stroke="rgb(0, 0, 0)" stroke-width="3px"/><text class="speech-bubble-content property-key" x="288.154296875" y="-50" alignment-baseline="central" text-anchor="end" font-size="50px" font-family="&quot;Gill Sans&quot;, &quot;Gill Sans MT&quot;, Calibri, sans-serif" xml:space="preserve">rank: </text><text class="speech-bubble-content property-key" x="288.154296875" y="0" alignment-baseline="central" text-anchor="end" font-size="50px" font-family="&quot;Gill Sans&quot;, &quot;Gill Sans MT&quot;, Calibri, sans-serif" xml:space="preserve">votes: </text><text class="speech-bubble-content property-key" x="288.154296875" y="50" alignment-baseline="central" text-anchor="end" font-size="50px" font-family="&quot;Gill Sans&quot;, &quot;Gill Sans MT&quot;, Calibri, sans-serif" xml:space="preserve">distribution: </text><text class="speech-bubble-content property-value" x="288.154296875" y="-50" alignment-baseline="central" font-size="50px" font-family="&quot;Gill Sans&quot;, &quot;Gill Sans MT&quot;, Calibri, sans-serif">'...',</text><text class="speech-bubble-content property-value" x="288.154296875" y="0" alignment-baseline="central" font-size="50px" font-family="&quot;Gill Sans&quot;, &quot;Gill Sans MT&quot;, Calibri, sans-serif">'...',</text><text class="speech-bubble-content property-value" x="288.154296875" y="50" alignment-baseline="central" font-size="50px" font-family="&quot;Gill Sans&quot;, &quot;Gill Sans MT&quot;, Calibri, sans-serif">'...'</text></g><g class="speech-bubble relationship-speech-bubble" transform="translate(171.8685245927926,-280.09812426809293) "><path class="speech-bubble-outline" transform="scale(1,1) " d="M 0 0 L 30 20 L 265.44921875 20 A 10 10 0 0 1 275.44921875 30 L 275.44921875 80 A 10 10 0 0 1 265.44921875 90 L 30 90 A 10 10 0 0 1 20 80 L 20 30 Z" fill="rgb(255, 255, 255)" stroke="rgb(0, 0, 0)" stroke-width="3px"/><text class="speech-bubble-content property-key" x="213.7646484375" y="55" alignment-baseline="central" text-anchor="end" font-size="50px" font-family="&quot;Gill Sans&quot;, &quot;Gill Sans MT&quot;, Calibri, sans-serif" xml:space="preserve">movieid: </text><text class="speech-bubble-content property-value" x="213.7646484375" y="55" alignment-baseline="central" font-size="50px" font-family="&quot;Gill Sans&quot;, &quot;Gill Sans MT&quot;, Calibri, sans-serif">'...'</text></g><g class="speech-bubble relationship-speech-bubble" transform="translate(364.16947302524693,7.763723720454564) "><path class="speech-bubble-outline" transform="scale(-1,1) " d="M 0 0 L 30 20 L 265.44921875 20 A 10 10 0 0 1 275.44921875 30 L 275.44921875 80 A 10 10 0 0 1 265.44921875 90 L 30 90 A 10 10 0 0 1 20 80 L 20 30 Z" fill="rgb(255, 255, 255)" stroke="rgb(0, 0, 0)" stroke-width="3px"/><text class="speech-bubble-content property-key" x="-81.6845703125" y="55" alignment-baseline="central" text-anchor="end" font-size="50px" font-family="&quot;Gill Sans&quot;, &quot;Gill Sans MT&quot;, Calibri, sans-serif" xml:space="preserve">movieid: </text><text class="speech-bubble-content property-value" x="-81.6845703125" y="55" alignment-baseline="central" font-size="50px" font-family="&quot;Gill Sans&quot;, &quot;Gill Sans MT&quot;, Calibri, sans-serif">'...'</text></g></g><g class="layer overlay"><circle class="node overlay" r="89.36360145297148" stroke="none" fill="rgba(255, 255, 255, 0)" cx="-160.0950152873993" cy="-102.06058120727539"/><circle class="node ring" r="94.36360145297148" fill="none" stroke="rgba(255, 255, 255, 0)" stroke-width="10px" cx="-160.0950152873993" cy="-102.06058120727539"/><circle class="node overlay" r="87.67111886894182" stroke="none" fill="rgba(255, 255, 255, 0)" cx="-874.1012573242188" cy="-456.59637451171875"/><circle class="node ring" r="92.67111886894182" fill="none" stroke="rgba(255, 255, 255, 0)" stroke-width="10px" cx="-874.1012573242188" cy="-456.59637451171875"/><circle class="node overlay" r="115.03473380834461" stroke="none" fill="rgba(255, 255, 255, 0)" cx="-160.0950152873993" cy="498.6824188232422"/><circle class="node ring" r="120.03473380834461" fill="none" stroke="rgba(255, 255, 255, 0)" stroke-width="10px" cx="-160.0950152873993" cy="498.6824188232422"/><circle class="node overlay" r="98.86817524364893" stroke="none" fill="rgba(255, 255, 255, 0)" cx="-966.3663635253906" cy="304.67830657958984"/><circle class="node ring" r="103.86817524364893" fill="none" stroke="rgba(255, 255, 255, 0)" stroke-width="10px" cx="-966.3663635253906" cy="304.67830657958984"/><path class="relationship overlay" fill="rgba(255, 255, 255, 0)" stroke="rgba(255, 255, 255, 0)" stroke-width="10px" transform="translate(-966.3663635253906,304.67830657958984) rotate(-26.76952791870454)" d="M 109.86817524364893 4 L 770.6923269521326 4 L 770.6923269521326 16 L 802.6923269521326 0 L 770.6923269521326 -16 L 770.6923269521326 -4 L 109.86817524364893 -4 Z"/><path class="relationship overlay" fill="rgba(255, 255, 255, 0)" stroke="rgba(255, 255, 255, 0)" stroke-width="10px" transform="translate(-160.0950152873993,498.6824188232422) rotate(-90)" d="M 126.03473380834461 4 L 468.3793985775461 4 L 468.3793985775461 16 L 500.3793985775461 0 L 468.3793985775461 -16 L 468.3793985775461 -4 L 126.03473380834461 -4 Z"/><path class="relationship overlay" fill="rgba(255, 255, 255, 0)" stroke="rgba(255, 255, 255, 0)" stroke-width="10px" transform="translate(-874.1012573242188,-456.59637451171875) rotate(26.406438806961322)" d="M 98.67111886894182 4 L 664.8192774409196 4 L 664.8192774409196 16 L 696.8192774409196 0 L 664.8192774409196 -16 L 664.8192774409196 -4 L 98.67111886894182 -4 Z"/><circle class="node overlay" r="158.4088886179093" stroke="none" fill="rgba(255, 255, 255, 0)" cx="592.8791275024414" cy="-505.89308166503906"/><circle class="node ring" r="163.4088886179093" fill="none" stroke="rgba(255, 255, 255, 0)" stroke-width="10px" cx="592.8791275024414" cy="-505.89308166503906"/><path class="relationship overlay" fill="rgba(255, 255, 255, 0)" stroke="rgba(255, 255, 255, 0)" stroke-width="10px" transform="translate(-160.0950152873993,-102.06058120727539) rotate(-28.205396075169173)" d="M 100.36360145297148 4 L 653.0211834980394 4 L 653.0211834980394 16 L 685.0211834980394 0 L 653.0211834980394 -16 L 653.0211834980394 -4 L 100.36360145297148 -4 Z"/><circle class="node overlay" r="90.54129983032438" stroke="none" fill="rgba(255, 255, 255, 0)" cx="920.9068069458008" cy="124.3905258178711"/><circle class="node ring" r="95.54129983032438" fill="none" stroke="rgba(255, 255, 255, 0)" stroke-width="10px" cx="920.9068069458008" cy="124.3905258178711"/><path class="relationship overlay" fill="rgba(255, 255, 255, 0)" stroke="rgba(255, 255, 255, 0)" stroke-width="10px" transform="translate(-160.0950152873993,-102.06058120727539) rotate(11.831385212624319)" d="M 100.36360145297148 4 L 970.9246541693511 4 L 970.9246541693511 16 L 1002.9246541693511 0 L 970.9246541693511 -16 L 970.9246541693511 -4 L 100.36360145297148 -4 Z"/></g></svg>